%TF.GenerationSoftware,KiCad,Pcbnew,9.0.7-9.0.7~ubuntu22.04.1*%
%TF.CreationDate,2026-03-07T13:22:49-06:00*%
%TF.ProjectId,IBM 0363 Breakout Box V1R1,49424d20-3033-4363-9320-427265616b6f,rev?*%
%TF.SameCoordinates,Original*%
%TF.FileFunction,Legend,Bot*%
%TF.FilePolarity,Positive*%
%FSLAX46Y46*%
G04 Gerber Fmt 4.6, Leading zero omitted, Abs format (unit mm)*
G04 Created by KiCad (PCBNEW 9.0.7-9.0.7~ubuntu22.04.1) date 2026-03-07 13:22:49*
%MOMM*%
%LPD*%
G01*
G04 APERTURE LIST*
%ADD10C,0.200000*%
%ADD11C,0.152400*%
%ADD12C,0.000000*%
G04 APERTURE END LIST*
D10*
X162564283Y-123832238D02*
X162964283Y-123832238D01*
X162964283Y-124460809D02*
X162964283Y-123260809D01*
X162964283Y-123260809D02*
X162392855Y-123260809D01*
X161764284Y-124460809D02*
X161878569Y-124403667D01*
X161878569Y-124403667D02*
X161935712Y-124346524D01*
X161935712Y-124346524D02*
X161992855Y-124232238D01*
X161992855Y-124232238D02*
X161992855Y-123889381D01*
X161992855Y-123889381D02*
X161935712Y-123775095D01*
X161935712Y-123775095D02*
X161878569Y-123717952D01*
X161878569Y-123717952D02*
X161764284Y-123660809D01*
X161764284Y-123660809D02*
X161592855Y-123660809D01*
X161592855Y-123660809D02*
X161478569Y-123717952D01*
X161478569Y-123717952D02*
X161421427Y-123775095D01*
X161421427Y-123775095D02*
X161364284Y-123889381D01*
X161364284Y-123889381D02*
X161364284Y-124232238D01*
X161364284Y-124232238D02*
X161421427Y-124346524D01*
X161421427Y-124346524D02*
X161478569Y-124403667D01*
X161478569Y-124403667D02*
X161592855Y-124460809D01*
X161592855Y-124460809D02*
X161764284Y-124460809D01*
X160678570Y-124460809D02*
X160792855Y-124403667D01*
X160792855Y-124403667D02*
X160849998Y-124346524D01*
X160849998Y-124346524D02*
X160907141Y-124232238D01*
X160907141Y-124232238D02*
X160907141Y-123889381D01*
X160907141Y-123889381D02*
X160849998Y-123775095D01*
X160849998Y-123775095D02*
X160792855Y-123717952D01*
X160792855Y-123717952D02*
X160678570Y-123660809D01*
X160678570Y-123660809D02*
X160507141Y-123660809D01*
X160507141Y-123660809D02*
X160392855Y-123717952D01*
X160392855Y-123717952D02*
X160335713Y-123775095D01*
X160335713Y-123775095D02*
X160278570Y-123889381D01*
X160278570Y-123889381D02*
X160278570Y-124232238D01*
X160278570Y-124232238D02*
X160335713Y-124346524D01*
X160335713Y-124346524D02*
X160392855Y-124403667D01*
X160392855Y-124403667D02*
X160507141Y-124460809D01*
X160507141Y-124460809D02*
X160678570Y-124460809D01*
X159935713Y-123660809D02*
X159478570Y-123660809D01*
X159764284Y-123260809D02*
X159764284Y-124289381D01*
X159764284Y-124289381D02*
X159707141Y-124403667D01*
X159707141Y-124403667D02*
X159592856Y-124460809D01*
X159592856Y-124460809D02*
X159478570Y-124460809D01*
X159078570Y-123660809D02*
X159078570Y-124860809D01*
X159078570Y-123717952D02*
X158964285Y-123660809D01*
X158964285Y-123660809D02*
X158735713Y-123660809D01*
X158735713Y-123660809D02*
X158621427Y-123717952D01*
X158621427Y-123717952D02*
X158564285Y-123775095D01*
X158564285Y-123775095D02*
X158507142Y-123889381D01*
X158507142Y-123889381D02*
X158507142Y-124232238D01*
X158507142Y-124232238D02*
X158564285Y-124346524D01*
X158564285Y-124346524D02*
X158621427Y-124403667D01*
X158621427Y-124403667D02*
X158735713Y-124460809D01*
X158735713Y-124460809D02*
X158964285Y-124460809D01*
X158964285Y-124460809D02*
X159078570Y-124403667D01*
X157992856Y-124460809D02*
X157992856Y-123660809D01*
X157992856Y-123889381D02*
X157935713Y-123775095D01*
X157935713Y-123775095D02*
X157878571Y-123717952D01*
X157878571Y-123717952D02*
X157764285Y-123660809D01*
X157764285Y-123660809D02*
X157649999Y-123660809D01*
X157249999Y-124460809D02*
X157249999Y-123660809D01*
X157249999Y-123260809D02*
X157307142Y-123317952D01*
X157307142Y-123317952D02*
X157249999Y-123375095D01*
X157249999Y-123375095D02*
X157192856Y-123317952D01*
X157192856Y-123317952D02*
X157249999Y-123260809D01*
X157249999Y-123260809D02*
X157249999Y-123375095D01*
X156678570Y-123660809D02*
X156678570Y-124460809D01*
X156678570Y-123775095D02*
X156621427Y-123717952D01*
X156621427Y-123717952D02*
X156507142Y-123660809D01*
X156507142Y-123660809D02*
X156335713Y-123660809D01*
X156335713Y-123660809D02*
X156221427Y-123717952D01*
X156221427Y-123717952D02*
X156164285Y-123832238D01*
X156164285Y-123832238D02*
X156164285Y-124460809D01*
X155764285Y-123660809D02*
X155307142Y-123660809D01*
X155592856Y-123260809D02*
X155592856Y-124289381D01*
X155592856Y-124289381D02*
X155535713Y-124403667D01*
X155535713Y-124403667D02*
X155421428Y-124460809D01*
X155421428Y-124460809D02*
X155307142Y-124460809D01*
X154964285Y-124403667D02*
X154849999Y-124460809D01*
X154849999Y-124460809D02*
X154621428Y-124460809D01*
X154621428Y-124460809D02*
X154507142Y-124403667D01*
X154507142Y-124403667D02*
X154449999Y-124289381D01*
X154449999Y-124289381D02*
X154449999Y-124232238D01*
X154449999Y-124232238D02*
X154507142Y-124117952D01*
X154507142Y-124117952D02*
X154621428Y-124060809D01*
X154621428Y-124060809D02*
X154792857Y-124060809D01*
X154792857Y-124060809D02*
X154907142Y-124003667D01*
X154907142Y-124003667D02*
X154964285Y-123889381D01*
X154964285Y-123889381D02*
X154964285Y-123832238D01*
X154964285Y-123832238D02*
X154907142Y-123717952D01*
X154907142Y-123717952D02*
X154792857Y-123660809D01*
X154792857Y-123660809D02*
X154621428Y-123660809D01*
X154621428Y-123660809D02*
X154507142Y-123717952D01*
X152507142Y-124460809D02*
X152507142Y-123832238D01*
X152507142Y-123832238D02*
X152564284Y-123717952D01*
X152564284Y-123717952D02*
X152678570Y-123660809D01*
X152678570Y-123660809D02*
X152907142Y-123660809D01*
X152907142Y-123660809D02*
X153021427Y-123717952D01*
X152507142Y-124403667D02*
X152621427Y-124460809D01*
X152621427Y-124460809D02*
X152907142Y-124460809D01*
X152907142Y-124460809D02*
X153021427Y-124403667D01*
X153021427Y-124403667D02*
X153078570Y-124289381D01*
X153078570Y-124289381D02*
X153078570Y-124175095D01*
X153078570Y-124175095D02*
X153021427Y-124060809D01*
X153021427Y-124060809D02*
X152907142Y-124003667D01*
X152907142Y-124003667D02*
X152621427Y-124003667D01*
X152621427Y-124003667D02*
X152507142Y-123946524D01*
X151935713Y-124460809D02*
X151935713Y-123660809D01*
X151935713Y-123889381D02*
X151878570Y-123775095D01*
X151878570Y-123775095D02*
X151821428Y-123717952D01*
X151821428Y-123717952D02*
X151707142Y-123660809D01*
X151707142Y-123660809D02*
X151592856Y-123660809D01*
X150735713Y-124403667D02*
X150849999Y-124460809D01*
X150849999Y-124460809D02*
X151078571Y-124460809D01*
X151078571Y-124460809D02*
X151192856Y-124403667D01*
X151192856Y-124403667D02*
X151249999Y-124289381D01*
X151249999Y-124289381D02*
X151249999Y-123832238D01*
X151249999Y-123832238D02*
X151192856Y-123717952D01*
X151192856Y-123717952D02*
X151078571Y-123660809D01*
X151078571Y-123660809D02*
X150849999Y-123660809D01*
X150849999Y-123660809D02*
X150735713Y-123717952D01*
X150735713Y-123717952D02*
X150678571Y-123832238D01*
X150678571Y-123832238D02*
X150678571Y-123946524D01*
X150678571Y-123946524D02*
X151249999Y-124060809D01*
X149421428Y-123660809D02*
X148964285Y-123660809D01*
X149249999Y-123260809D02*
X149249999Y-124289381D01*
X149249999Y-124289381D02*
X149192856Y-124403667D01*
X149192856Y-124403667D02*
X149078571Y-124460809D01*
X149078571Y-124460809D02*
X148964285Y-124460809D01*
X148107142Y-124403667D02*
X148221428Y-124460809D01*
X148221428Y-124460809D02*
X148450000Y-124460809D01*
X148450000Y-124460809D02*
X148564285Y-124403667D01*
X148564285Y-124403667D02*
X148621428Y-124289381D01*
X148621428Y-124289381D02*
X148621428Y-123832238D01*
X148621428Y-123832238D02*
X148564285Y-123717952D01*
X148564285Y-123717952D02*
X148450000Y-123660809D01*
X148450000Y-123660809D02*
X148221428Y-123660809D01*
X148221428Y-123660809D02*
X148107142Y-123717952D01*
X148107142Y-123717952D02*
X148050000Y-123832238D01*
X148050000Y-123832238D02*
X148050000Y-123946524D01*
X148050000Y-123946524D02*
X148621428Y-124060809D01*
X147592857Y-124403667D02*
X147478571Y-124460809D01*
X147478571Y-124460809D02*
X147250000Y-124460809D01*
X147250000Y-124460809D02*
X147135714Y-124403667D01*
X147135714Y-124403667D02*
X147078571Y-124289381D01*
X147078571Y-124289381D02*
X147078571Y-124232238D01*
X147078571Y-124232238D02*
X147135714Y-124117952D01*
X147135714Y-124117952D02*
X147250000Y-124060809D01*
X147250000Y-124060809D02*
X147421429Y-124060809D01*
X147421429Y-124060809D02*
X147535714Y-124003667D01*
X147535714Y-124003667D02*
X147592857Y-123889381D01*
X147592857Y-123889381D02*
X147592857Y-123832238D01*
X147592857Y-123832238D02*
X147535714Y-123717952D01*
X147535714Y-123717952D02*
X147421429Y-123660809D01*
X147421429Y-123660809D02*
X147250000Y-123660809D01*
X147250000Y-123660809D02*
X147135714Y-123717952D01*
X146735714Y-123660809D02*
X146278571Y-123660809D01*
X146564285Y-123260809D02*
X146564285Y-124289381D01*
X146564285Y-124289381D02*
X146507142Y-124403667D01*
X146507142Y-124403667D02*
X146392857Y-124460809D01*
X146392857Y-124460809D02*
X146278571Y-124460809D01*
X145421428Y-124403667D02*
X145535714Y-124460809D01*
X145535714Y-124460809D02*
X145764286Y-124460809D01*
X145764286Y-124460809D02*
X145878571Y-124403667D01*
X145878571Y-124403667D02*
X145935714Y-124289381D01*
X145935714Y-124289381D02*
X145935714Y-123832238D01*
X145935714Y-123832238D02*
X145878571Y-123717952D01*
X145878571Y-123717952D02*
X145764286Y-123660809D01*
X145764286Y-123660809D02*
X145535714Y-123660809D01*
X145535714Y-123660809D02*
X145421428Y-123717952D01*
X145421428Y-123717952D02*
X145364286Y-123832238D01*
X145364286Y-123832238D02*
X145364286Y-123946524D01*
X145364286Y-123946524D02*
X145935714Y-124060809D01*
X144335715Y-124460809D02*
X144335715Y-123260809D01*
X144335715Y-124403667D02*
X144450000Y-124460809D01*
X144450000Y-124460809D02*
X144678572Y-124460809D01*
X144678572Y-124460809D02*
X144792857Y-124403667D01*
X144792857Y-124403667D02*
X144850000Y-124346524D01*
X144850000Y-124346524D02*
X144907143Y-124232238D01*
X144907143Y-124232238D02*
X144907143Y-123889381D01*
X144907143Y-123889381D02*
X144850000Y-123775095D01*
X144850000Y-123775095D02*
X144792857Y-123717952D01*
X144792857Y-123717952D02*
X144678572Y-123660809D01*
X144678572Y-123660809D02*
X144450000Y-123660809D01*
X144450000Y-123660809D02*
X144335715Y-123717952D01*
X165478572Y-125592742D02*
X165021429Y-125592742D01*
X165307143Y-126392742D02*
X165307143Y-125364171D01*
X165307143Y-125364171D02*
X165250000Y-125249885D01*
X165250000Y-125249885D02*
X165135715Y-125192742D01*
X165135715Y-125192742D02*
X165021429Y-125192742D01*
X164450001Y-126392742D02*
X164564286Y-126335600D01*
X164564286Y-126335600D02*
X164621429Y-126278457D01*
X164621429Y-126278457D02*
X164678572Y-126164171D01*
X164678572Y-126164171D02*
X164678572Y-125821314D01*
X164678572Y-125821314D02*
X164621429Y-125707028D01*
X164621429Y-125707028D02*
X164564286Y-125649885D01*
X164564286Y-125649885D02*
X164450001Y-125592742D01*
X164450001Y-125592742D02*
X164278572Y-125592742D01*
X164278572Y-125592742D02*
X164164286Y-125649885D01*
X164164286Y-125649885D02*
X164107144Y-125707028D01*
X164107144Y-125707028D02*
X164050001Y-125821314D01*
X164050001Y-125821314D02*
X164050001Y-126164171D01*
X164050001Y-126164171D02*
X164107144Y-126278457D01*
X164107144Y-126278457D02*
X164164286Y-126335600D01*
X164164286Y-126335600D02*
X164278572Y-126392742D01*
X164278572Y-126392742D02*
X164450001Y-126392742D01*
X163535715Y-126392742D02*
X163535715Y-125592742D01*
X163535715Y-125821314D02*
X163478572Y-125707028D01*
X163478572Y-125707028D02*
X163421430Y-125649885D01*
X163421430Y-125649885D02*
X163307144Y-125592742D01*
X163307144Y-125592742D02*
X163192858Y-125592742D01*
X161192858Y-126278457D02*
X161250001Y-126335600D01*
X161250001Y-126335600D02*
X161421429Y-126392742D01*
X161421429Y-126392742D02*
X161535715Y-126392742D01*
X161535715Y-126392742D02*
X161707144Y-126335600D01*
X161707144Y-126335600D02*
X161821429Y-126221314D01*
X161821429Y-126221314D02*
X161878572Y-126107028D01*
X161878572Y-126107028D02*
X161935715Y-125878457D01*
X161935715Y-125878457D02*
X161935715Y-125707028D01*
X161935715Y-125707028D02*
X161878572Y-125478457D01*
X161878572Y-125478457D02*
X161821429Y-125364171D01*
X161821429Y-125364171D02*
X161707144Y-125249885D01*
X161707144Y-125249885D02*
X161535715Y-125192742D01*
X161535715Y-125192742D02*
X161421429Y-125192742D01*
X161421429Y-125192742D02*
X161250001Y-125249885D01*
X161250001Y-125249885D02*
X161192858Y-125307028D01*
X160678572Y-125192742D02*
X160678572Y-126164171D01*
X160678572Y-126164171D02*
X160621429Y-126278457D01*
X160621429Y-126278457D02*
X160564287Y-126335600D01*
X160564287Y-126335600D02*
X160450001Y-126392742D01*
X160450001Y-126392742D02*
X160221429Y-126392742D01*
X160221429Y-126392742D02*
X160107144Y-126335600D01*
X160107144Y-126335600D02*
X160050001Y-126278457D01*
X160050001Y-126278457D02*
X159992858Y-126164171D01*
X159992858Y-126164171D02*
X159992858Y-125192742D01*
X159421429Y-126392742D02*
X159421429Y-125192742D01*
X157935714Y-126392742D02*
X157935714Y-125192742D01*
X157935714Y-125192742D02*
X157535714Y-126049885D01*
X157535714Y-126049885D02*
X157135714Y-125192742D01*
X157135714Y-125192742D02*
X157135714Y-126392742D01*
X156564285Y-126392742D02*
X156564285Y-125192742D01*
X156564285Y-125192742D02*
X156278571Y-125192742D01*
X156278571Y-125192742D02*
X156107142Y-125249885D01*
X156107142Y-125249885D02*
X155992857Y-125364171D01*
X155992857Y-125364171D02*
X155935714Y-125478457D01*
X155935714Y-125478457D02*
X155878571Y-125707028D01*
X155878571Y-125707028D02*
X155878571Y-125878457D01*
X155878571Y-125878457D02*
X155935714Y-126107028D01*
X155935714Y-126107028D02*
X155992857Y-126221314D01*
X155992857Y-126221314D02*
X156107142Y-126335600D01*
X156107142Y-126335600D02*
X156278571Y-126392742D01*
X156278571Y-126392742D02*
X156564285Y-126392742D01*
X155364285Y-125935600D02*
X154450000Y-125935600D01*
X153364286Y-125192742D02*
X153592857Y-125192742D01*
X153592857Y-125192742D02*
X153707143Y-125249885D01*
X153707143Y-125249885D02*
X153764286Y-125307028D01*
X153764286Y-125307028D02*
X153878571Y-125478457D01*
X153878571Y-125478457D02*
X153935714Y-125707028D01*
X153935714Y-125707028D02*
X153935714Y-126164171D01*
X153935714Y-126164171D02*
X153878571Y-126278457D01*
X153878571Y-126278457D02*
X153821428Y-126335600D01*
X153821428Y-126335600D02*
X153707143Y-126392742D01*
X153707143Y-126392742D02*
X153478571Y-126392742D01*
X153478571Y-126392742D02*
X153364286Y-126335600D01*
X153364286Y-126335600D02*
X153307143Y-126278457D01*
X153307143Y-126278457D02*
X153250000Y-126164171D01*
X153250000Y-126164171D02*
X153250000Y-125878457D01*
X153250000Y-125878457D02*
X153307143Y-125764171D01*
X153307143Y-125764171D02*
X153364286Y-125707028D01*
X153364286Y-125707028D02*
X153478571Y-125649885D01*
X153478571Y-125649885D02*
X153707143Y-125649885D01*
X153707143Y-125649885D02*
X153821428Y-125707028D01*
X153821428Y-125707028D02*
X153878571Y-125764171D01*
X153878571Y-125764171D02*
X153935714Y-125878457D01*
X152507143Y-125192742D02*
X152392857Y-125192742D01*
X152392857Y-125192742D02*
X152278571Y-125249885D01*
X152278571Y-125249885D02*
X152221429Y-125307028D01*
X152221429Y-125307028D02*
X152164286Y-125421314D01*
X152164286Y-125421314D02*
X152107143Y-125649885D01*
X152107143Y-125649885D02*
X152107143Y-125935600D01*
X152107143Y-125935600D02*
X152164286Y-126164171D01*
X152164286Y-126164171D02*
X152221429Y-126278457D01*
X152221429Y-126278457D02*
X152278571Y-126335600D01*
X152278571Y-126335600D02*
X152392857Y-126392742D01*
X152392857Y-126392742D02*
X152507143Y-126392742D01*
X152507143Y-126392742D02*
X152621429Y-126335600D01*
X152621429Y-126335600D02*
X152678571Y-126278457D01*
X152678571Y-126278457D02*
X152735714Y-126164171D01*
X152735714Y-126164171D02*
X152792857Y-125935600D01*
X152792857Y-125935600D02*
X152792857Y-125649885D01*
X152792857Y-125649885D02*
X152735714Y-125421314D01*
X152735714Y-125421314D02*
X152678571Y-125307028D01*
X152678571Y-125307028D02*
X152621429Y-125249885D01*
X152621429Y-125249885D02*
X152507143Y-125192742D01*
X151650000Y-126335600D02*
X151478572Y-126392742D01*
X151478572Y-126392742D02*
X151192857Y-126392742D01*
X151192857Y-126392742D02*
X151078572Y-126335600D01*
X151078572Y-126335600D02*
X151021429Y-126278457D01*
X151021429Y-126278457D02*
X150964286Y-126164171D01*
X150964286Y-126164171D02*
X150964286Y-126049885D01*
X150964286Y-126049885D02*
X151021429Y-125935600D01*
X151021429Y-125935600D02*
X151078572Y-125878457D01*
X151078572Y-125878457D02*
X151192857Y-125821314D01*
X151192857Y-125821314D02*
X151421429Y-125764171D01*
X151421429Y-125764171D02*
X151535714Y-125707028D01*
X151535714Y-125707028D02*
X151592857Y-125649885D01*
X151592857Y-125649885D02*
X151650000Y-125535600D01*
X151650000Y-125535600D02*
X151650000Y-125421314D01*
X151650000Y-125421314D02*
X151592857Y-125307028D01*
X151592857Y-125307028D02*
X151535714Y-125249885D01*
X151535714Y-125249885D02*
X151421429Y-125192742D01*
X151421429Y-125192742D02*
X151135714Y-125192742D01*
X151135714Y-125192742D02*
X150964286Y-125249885D01*
X149535714Y-126392742D02*
X149535714Y-125192742D01*
X149535714Y-125192742D02*
X149135714Y-126049885D01*
X149135714Y-126049885D02*
X148735714Y-125192742D01*
X148735714Y-125192742D02*
X148735714Y-126392742D01*
X148164285Y-126392742D02*
X148164285Y-125592742D01*
X148164285Y-125192742D02*
X148221428Y-125249885D01*
X148221428Y-125249885D02*
X148164285Y-125307028D01*
X148164285Y-125307028D02*
X148107142Y-125249885D01*
X148107142Y-125249885D02*
X148164285Y-125192742D01*
X148164285Y-125192742D02*
X148164285Y-125307028D01*
X147592856Y-125592742D02*
X147592856Y-126392742D01*
X147592856Y-125707028D02*
X147535713Y-125649885D01*
X147535713Y-125649885D02*
X147421428Y-125592742D01*
X147421428Y-125592742D02*
X147249999Y-125592742D01*
X147249999Y-125592742D02*
X147135713Y-125649885D01*
X147135713Y-125649885D02*
X147078571Y-125764171D01*
X147078571Y-125764171D02*
X147078571Y-126392742D01*
X146507142Y-126392742D02*
X146507142Y-125592742D01*
X146507142Y-125192742D02*
X146564285Y-125249885D01*
X146564285Y-125249885D02*
X146507142Y-125307028D01*
X146507142Y-125307028D02*
X146449999Y-125249885D01*
X146449999Y-125249885D02*
X146507142Y-125192742D01*
X146507142Y-125192742D02*
X146507142Y-125307028D01*
X145935713Y-125935600D02*
X145021428Y-125935600D01*
X144449999Y-126392742D02*
X144449999Y-125192742D01*
X144449999Y-125192742D02*
X144164285Y-125192742D01*
X144164285Y-125192742D02*
X143992856Y-125249885D01*
X143992856Y-125249885D02*
X143878571Y-125364171D01*
X143878571Y-125364171D02*
X143821428Y-125478457D01*
X143821428Y-125478457D02*
X143764285Y-125707028D01*
X143764285Y-125707028D02*
X143764285Y-125878457D01*
X143764285Y-125878457D02*
X143821428Y-126107028D01*
X143821428Y-126107028D02*
X143878571Y-126221314D01*
X143878571Y-126221314D02*
X143992856Y-126335600D01*
X143992856Y-126335600D02*
X144164285Y-126392742D01*
X144164285Y-126392742D02*
X144449999Y-126392742D01*
X143249999Y-126392742D02*
X143249999Y-125192742D01*
X142678570Y-126392742D02*
X142678570Y-125192742D01*
X142678570Y-125192742D02*
X141992856Y-126392742D01*
X141992856Y-126392742D02*
X141992856Y-125192742D01*
D11*
X168600000Y-106000000D02*
X138800000Y-106000000D01*
X139000000Y-101000000D02*
X168800000Y-101000000D01*
X168800000Y-115400000D01*
X139000000Y-115400000D01*
X139000000Y-101000000D01*
X153600000Y-106000000D02*
X153600000Y-115400000D01*
X162202117Y-108301808D02*
X162202117Y-107051808D01*
X162202117Y-107051808D02*
X161725927Y-107051808D01*
X161725927Y-107051808D02*
X161606879Y-107111332D01*
X161606879Y-107111332D02*
X161547356Y-107170856D01*
X161547356Y-107170856D02*
X161487832Y-107289904D01*
X161487832Y-107289904D02*
X161487832Y-107468475D01*
X161487832Y-107468475D02*
X161547356Y-107587523D01*
X161547356Y-107587523D02*
X161606879Y-107647046D01*
X161606879Y-107647046D02*
X161725927Y-107706570D01*
X161725927Y-107706570D02*
X162202117Y-107706570D01*
X160952117Y-108301808D02*
X160952117Y-107051808D01*
X160356879Y-108301808D02*
X160356879Y-107051808D01*
X160356879Y-107051808D02*
X159642594Y-108301808D01*
X159642594Y-108301808D02*
X159642594Y-107051808D01*
X158154498Y-107170856D02*
X158094974Y-107111332D01*
X158094974Y-107111332D02*
X157975927Y-107051808D01*
X157975927Y-107051808D02*
X157678308Y-107051808D01*
X157678308Y-107051808D02*
X157559260Y-107111332D01*
X157559260Y-107111332D02*
X157499736Y-107170856D01*
X157499736Y-107170856D02*
X157440213Y-107289904D01*
X157440213Y-107289904D02*
X157440213Y-107408951D01*
X157440213Y-107408951D02*
X157499736Y-107587523D01*
X157499736Y-107587523D02*
X158214022Y-108301808D01*
X158214022Y-108301808D02*
X157440213Y-108301808D01*
X156368784Y-107051808D02*
X156606879Y-107051808D01*
X156606879Y-107051808D02*
X156725927Y-107111332D01*
X156725927Y-107111332D02*
X156785451Y-107170856D01*
X156785451Y-107170856D02*
X156904498Y-107349427D01*
X156904498Y-107349427D02*
X156964022Y-107587523D01*
X156964022Y-107587523D02*
X156964022Y-108063713D01*
X156964022Y-108063713D02*
X156904498Y-108182761D01*
X156904498Y-108182761D02*
X156844975Y-108242285D01*
X156844975Y-108242285D02*
X156725927Y-108301808D01*
X156725927Y-108301808D02*
X156487832Y-108301808D01*
X156487832Y-108301808D02*
X156368784Y-108242285D01*
X156368784Y-108242285D02*
X156309260Y-108182761D01*
X156309260Y-108182761D02*
X156249737Y-108063713D01*
X156249737Y-108063713D02*
X156249737Y-107766094D01*
X156249737Y-107766094D02*
X156309260Y-107647046D01*
X156309260Y-107647046D02*
X156368784Y-107587523D01*
X156368784Y-107587523D02*
X156487832Y-107527999D01*
X156487832Y-107527999D02*
X156725927Y-107527999D01*
X156725927Y-107527999D02*
X156844975Y-107587523D01*
X156844975Y-107587523D02*
X156904498Y-107647046D01*
X156904498Y-107647046D02*
X156964022Y-107766094D01*
X162202117Y-110314238D02*
X162202117Y-109064238D01*
X162202117Y-109064238D02*
X161725927Y-109064238D01*
X161725927Y-109064238D02*
X161606879Y-109123762D01*
X161606879Y-109123762D02*
X161547356Y-109183286D01*
X161547356Y-109183286D02*
X161487832Y-109302334D01*
X161487832Y-109302334D02*
X161487832Y-109480905D01*
X161487832Y-109480905D02*
X161547356Y-109599953D01*
X161547356Y-109599953D02*
X161606879Y-109659476D01*
X161606879Y-109659476D02*
X161725927Y-109719000D01*
X161725927Y-109719000D02*
X162202117Y-109719000D01*
X160952117Y-110314238D02*
X160952117Y-109064238D01*
X160356879Y-110314238D02*
X160356879Y-109064238D01*
X160356879Y-109064238D02*
X159642594Y-110314238D01*
X159642594Y-110314238D02*
X159642594Y-109064238D01*
X157559260Y-109064238D02*
X157797355Y-109064238D01*
X157797355Y-109064238D02*
X157916403Y-109123762D01*
X157916403Y-109123762D02*
X157975927Y-109183286D01*
X157975927Y-109183286D02*
X158094974Y-109361857D01*
X158094974Y-109361857D02*
X158154498Y-109599953D01*
X158154498Y-109599953D02*
X158154498Y-110076143D01*
X158154498Y-110076143D02*
X158094974Y-110195191D01*
X158094974Y-110195191D02*
X158035451Y-110254715D01*
X158035451Y-110254715D02*
X157916403Y-110314238D01*
X157916403Y-110314238D02*
X157678308Y-110314238D01*
X157678308Y-110314238D02*
X157559260Y-110254715D01*
X157559260Y-110254715D02*
X157499736Y-110195191D01*
X157499736Y-110195191D02*
X157440213Y-110076143D01*
X157440213Y-110076143D02*
X157440213Y-109778524D01*
X157440213Y-109778524D02*
X157499736Y-109659476D01*
X157499736Y-109659476D02*
X157559260Y-109599953D01*
X157559260Y-109599953D02*
X157678308Y-109540429D01*
X157678308Y-109540429D02*
X157916403Y-109540429D01*
X157916403Y-109540429D02*
X158035451Y-109599953D01*
X158035451Y-109599953D02*
X158094974Y-109659476D01*
X158094974Y-109659476D02*
X158154498Y-109778524D01*
X162202117Y-112326668D02*
X162202117Y-111076668D01*
X162202117Y-111076668D02*
X161725927Y-111076668D01*
X161725927Y-111076668D02*
X161606879Y-111136192D01*
X161606879Y-111136192D02*
X161547356Y-111195716D01*
X161547356Y-111195716D02*
X161487832Y-111314764D01*
X161487832Y-111314764D02*
X161487832Y-111493335D01*
X161487832Y-111493335D02*
X161547356Y-111612383D01*
X161547356Y-111612383D02*
X161606879Y-111671906D01*
X161606879Y-111671906D02*
X161725927Y-111731430D01*
X161725927Y-111731430D02*
X162202117Y-111731430D01*
X160952117Y-112326668D02*
X160952117Y-111076668D01*
X160356879Y-112326668D02*
X160356879Y-111076668D01*
X160356879Y-111076668D02*
X159642594Y-112326668D01*
X159642594Y-112326668D02*
X159642594Y-111076668D01*
X157499736Y-111076668D02*
X158094974Y-111076668D01*
X158094974Y-111076668D02*
X158154498Y-111671906D01*
X158154498Y-111671906D02*
X158094974Y-111612383D01*
X158094974Y-111612383D02*
X157975927Y-111552859D01*
X157975927Y-111552859D02*
X157678308Y-111552859D01*
X157678308Y-111552859D02*
X157559260Y-111612383D01*
X157559260Y-111612383D02*
X157499736Y-111671906D01*
X157499736Y-111671906D02*
X157440213Y-111790954D01*
X157440213Y-111790954D02*
X157440213Y-112088573D01*
X157440213Y-112088573D02*
X157499736Y-112207621D01*
X157499736Y-112207621D02*
X157559260Y-112267145D01*
X157559260Y-112267145D02*
X157678308Y-112326668D01*
X157678308Y-112326668D02*
X157975927Y-112326668D01*
X157975927Y-112326668D02*
X158094974Y-112267145D01*
X158094974Y-112267145D02*
X158154498Y-112207621D01*
X162202117Y-114339098D02*
X162202117Y-113089098D01*
X162202117Y-113089098D02*
X161725927Y-113089098D01*
X161725927Y-113089098D02*
X161606879Y-113148622D01*
X161606879Y-113148622D02*
X161547356Y-113208146D01*
X161547356Y-113208146D02*
X161487832Y-113327194D01*
X161487832Y-113327194D02*
X161487832Y-113505765D01*
X161487832Y-113505765D02*
X161547356Y-113624813D01*
X161547356Y-113624813D02*
X161606879Y-113684336D01*
X161606879Y-113684336D02*
X161725927Y-113743860D01*
X161725927Y-113743860D02*
X162202117Y-113743860D01*
X160952117Y-114339098D02*
X160952117Y-113089098D01*
X160356879Y-114339098D02*
X160356879Y-113089098D01*
X160356879Y-113089098D02*
X159642594Y-114339098D01*
X159642594Y-114339098D02*
X159642594Y-113089098D01*
X158154498Y-113208146D02*
X158094974Y-113148622D01*
X158094974Y-113148622D02*
X157975927Y-113089098D01*
X157975927Y-113089098D02*
X157678308Y-113089098D01*
X157678308Y-113089098D02*
X157559260Y-113148622D01*
X157559260Y-113148622D02*
X157499736Y-113208146D01*
X157499736Y-113208146D02*
X157440213Y-113327194D01*
X157440213Y-113327194D02*
X157440213Y-113446241D01*
X157440213Y-113446241D02*
X157499736Y-113624813D01*
X157499736Y-113624813D02*
X158214022Y-114339098D01*
X158214022Y-114339098D02*
X157440213Y-114339098D01*
X156309260Y-113089098D02*
X156904498Y-113089098D01*
X156904498Y-113089098D02*
X156964022Y-113684336D01*
X156964022Y-113684336D02*
X156904498Y-113624813D01*
X156904498Y-113624813D02*
X156785451Y-113565289D01*
X156785451Y-113565289D02*
X156487832Y-113565289D01*
X156487832Y-113565289D02*
X156368784Y-113624813D01*
X156368784Y-113624813D02*
X156309260Y-113684336D01*
X156309260Y-113684336D02*
X156249737Y-113803384D01*
X156249737Y-113803384D02*
X156249737Y-114101003D01*
X156249737Y-114101003D02*
X156309260Y-114220051D01*
X156309260Y-114220051D02*
X156368784Y-114279575D01*
X156368784Y-114279575D02*
X156487832Y-114339098D01*
X156487832Y-114339098D02*
X156785451Y-114339098D01*
X156785451Y-114339098D02*
X156904498Y-114279575D01*
X156904498Y-114279575D02*
X156964022Y-114220051D01*
X167172117Y-104039098D02*
X167172117Y-102789098D01*
X167172117Y-103384336D02*
X166457832Y-103384336D01*
X166457832Y-104039098D02*
X166457832Y-102789098D01*
X165386403Y-103979575D02*
X165505451Y-104039098D01*
X165505451Y-104039098D02*
X165743546Y-104039098D01*
X165743546Y-104039098D02*
X165862593Y-103979575D01*
X165862593Y-103979575D02*
X165922117Y-103860527D01*
X165922117Y-103860527D02*
X165922117Y-103384336D01*
X165922117Y-103384336D02*
X165862593Y-103265289D01*
X165862593Y-103265289D02*
X165743546Y-103205765D01*
X165743546Y-103205765D02*
X165505451Y-103205765D01*
X165505451Y-103205765D02*
X165386403Y-103265289D01*
X165386403Y-103265289D02*
X165326879Y-103384336D01*
X165326879Y-103384336D02*
X165326879Y-103503384D01*
X165326879Y-103503384D02*
X165922117Y-103622432D01*
X164255450Y-104039098D02*
X164255450Y-103384336D01*
X164255450Y-103384336D02*
X164314974Y-103265289D01*
X164314974Y-103265289D02*
X164434022Y-103205765D01*
X164434022Y-103205765D02*
X164672117Y-103205765D01*
X164672117Y-103205765D02*
X164791164Y-103265289D01*
X164255450Y-103979575D02*
X164374498Y-104039098D01*
X164374498Y-104039098D02*
X164672117Y-104039098D01*
X164672117Y-104039098D02*
X164791164Y-103979575D01*
X164791164Y-103979575D02*
X164850688Y-103860527D01*
X164850688Y-103860527D02*
X164850688Y-103741479D01*
X164850688Y-103741479D02*
X164791164Y-103622432D01*
X164791164Y-103622432D02*
X164672117Y-103562908D01*
X164672117Y-103562908D02*
X164374498Y-103562908D01*
X164374498Y-103562908D02*
X164255450Y-103503384D01*
X163124498Y-104039098D02*
X163124498Y-102789098D01*
X163124498Y-103979575D02*
X163243546Y-104039098D01*
X163243546Y-104039098D02*
X163481641Y-104039098D01*
X163481641Y-104039098D02*
X163600689Y-103979575D01*
X163600689Y-103979575D02*
X163660212Y-103920051D01*
X163660212Y-103920051D02*
X163719736Y-103801003D01*
X163719736Y-103801003D02*
X163719736Y-103443860D01*
X163719736Y-103443860D02*
X163660212Y-103324813D01*
X163660212Y-103324813D02*
X163600689Y-103265289D01*
X163600689Y-103265289D02*
X163481641Y-103205765D01*
X163481641Y-103205765D02*
X163243546Y-103205765D01*
X163243546Y-103205765D02*
X163124498Y-103265289D01*
X162053070Y-103979575D02*
X162172118Y-104039098D01*
X162172118Y-104039098D02*
X162410213Y-104039098D01*
X162410213Y-104039098D02*
X162529260Y-103979575D01*
X162529260Y-103979575D02*
X162588784Y-103860527D01*
X162588784Y-103860527D02*
X162588784Y-103384336D01*
X162588784Y-103384336D02*
X162529260Y-103265289D01*
X162529260Y-103265289D02*
X162410213Y-103205765D01*
X162410213Y-103205765D02*
X162172118Y-103205765D01*
X162172118Y-103205765D02*
X162053070Y-103265289D01*
X162053070Y-103265289D02*
X161993546Y-103384336D01*
X161993546Y-103384336D02*
X161993546Y-103503384D01*
X161993546Y-103503384D02*
X162588784Y-103622432D01*
X161457831Y-104039098D02*
X161457831Y-103205765D01*
X161457831Y-103443860D02*
X161398308Y-103324813D01*
X161398308Y-103324813D02*
X161338784Y-103265289D01*
X161338784Y-103265289D02*
X161219736Y-103205765D01*
X161219736Y-103205765D02*
X161100689Y-103205765D01*
X159910212Y-103205765D02*
X159434021Y-103205765D01*
X159731640Y-102789098D02*
X159731640Y-103860527D01*
X159731640Y-103860527D02*
X159672117Y-103979575D01*
X159672117Y-103979575D02*
X159553069Y-104039098D01*
X159553069Y-104039098D02*
X159434021Y-104039098D01*
X158838783Y-104039098D02*
X158957831Y-103979575D01*
X158957831Y-103979575D02*
X159017354Y-103920051D01*
X159017354Y-103920051D02*
X159076878Y-103801003D01*
X159076878Y-103801003D02*
X159076878Y-103443860D01*
X159076878Y-103443860D02*
X159017354Y-103324813D01*
X159017354Y-103324813D02*
X158957831Y-103265289D01*
X158957831Y-103265289D02*
X158838783Y-103205765D01*
X158838783Y-103205765D02*
X158660212Y-103205765D01*
X158660212Y-103205765D02*
X158541164Y-103265289D01*
X158541164Y-103265289D02*
X158481640Y-103324813D01*
X158481640Y-103324813D02*
X158422116Y-103443860D01*
X158422116Y-103443860D02*
X158422116Y-103801003D01*
X158422116Y-103801003D02*
X158481640Y-103920051D01*
X158481640Y-103920051D02*
X158541164Y-103979575D01*
X158541164Y-103979575D02*
X158660212Y-104039098D01*
X158660212Y-104039098D02*
X158838783Y-104039098D01*
X156934021Y-104039098D02*
X156934021Y-102789098D01*
X156934021Y-102789098D02*
X156517355Y-103681955D01*
X156517355Y-103681955D02*
X156100688Y-102789098D01*
X156100688Y-102789098D02*
X156100688Y-104039098D01*
X155505450Y-104039098D02*
X155505450Y-102789098D01*
X155505450Y-102789098D02*
X155207831Y-102789098D01*
X155207831Y-102789098D02*
X155029260Y-102848622D01*
X155029260Y-102848622D02*
X154910212Y-102967670D01*
X154910212Y-102967670D02*
X154850689Y-103086717D01*
X154850689Y-103086717D02*
X154791165Y-103324813D01*
X154791165Y-103324813D02*
X154791165Y-103503384D01*
X154791165Y-103503384D02*
X154850689Y-103741479D01*
X154850689Y-103741479D02*
X154910212Y-103860527D01*
X154910212Y-103860527D02*
X155029260Y-103979575D01*
X155029260Y-103979575D02*
X155207831Y-104039098D01*
X155207831Y-104039098D02*
X155505450Y-104039098D01*
X153541165Y-104039098D02*
X153957831Y-103443860D01*
X154255450Y-104039098D02*
X154255450Y-102789098D01*
X154255450Y-102789098D02*
X153779260Y-102789098D01*
X153779260Y-102789098D02*
X153660212Y-102848622D01*
X153660212Y-102848622D02*
X153600689Y-102908146D01*
X153600689Y-102908146D02*
X153541165Y-103027194D01*
X153541165Y-103027194D02*
X153541165Y-103205765D01*
X153541165Y-103205765D02*
X153600689Y-103324813D01*
X153600689Y-103324813D02*
X153660212Y-103384336D01*
X153660212Y-103384336D02*
X153779260Y-103443860D01*
X153779260Y-103443860D02*
X154255450Y-103443860D01*
X153005450Y-103562908D02*
X152053070Y-103562908D01*
X150922117Y-103205765D02*
X150922117Y-104039098D01*
X151219736Y-102729575D02*
X151517355Y-103622432D01*
X151517355Y-103622432D02*
X150743546Y-103622432D01*
X150029260Y-102789098D02*
X149910213Y-102789098D01*
X149910213Y-102789098D02*
X149791165Y-102848622D01*
X149791165Y-102848622D02*
X149731641Y-102908146D01*
X149731641Y-102908146D02*
X149672117Y-103027194D01*
X149672117Y-103027194D02*
X149612594Y-103265289D01*
X149612594Y-103265289D02*
X149612594Y-103562908D01*
X149612594Y-103562908D02*
X149672117Y-103801003D01*
X149672117Y-103801003D02*
X149731641Y-103920051D01*
X149731641Y-103920051D02*
X149791165Y-103979575D01*
X149791165Y-103979575D02*
X149910213Y-104039098D01*
X149910213Y-104039098D02*
X150029260Y-104039098D01*
X150029260Y-104039098D02*
X150148308Y-103979575D01*
X150148308Y-103979575D02*
X150207832Y-103920051D01*
X150207832Y-103920051D02*
X150267355Y-103801003D01*
X150267355Y-103801003D02*
X150326879Y-103562908D01*
X150326879Y-103562908D02*
X150326879Y-103265289D01*
X150326879Y-103265289D02*
X150267355Y-103027194D01*
X150267355Y-103027194D02*
X150207832Y-102908146D01*
X150207832Y-102908146D02*
X150148308Y-102848622D01*
X150148308Y-102848622D02*
X150029260Y-102789098D01*
X148124498Y-103205765D02*
X148124498Y-104455765D01*
X148124498Y-103265289D02*
X148005451Y-103205765D01*
X148005451Y-103205765D02*
X147767356Y-103205765D01*
X147767356Y-103205765D02*
X147648308Y-103265289D01*
X147648308Y-103265289D02*
X147588784Y-103324813D01*
X147588784Y-103324813D02*
X147529260Y-103443860D01*
X147529260Y-103443860D02*
X147529260Y-103801003D01*
X147529260Y-103801003D02*
X147588784Y-103920051D01*
X147588784Y-103920051D02*
X147648308Y-103979575D01*
X147648308Y-103979575D02*
X147767356Y-104039098D01*
X147767356Y-104039098D02*
X148005451Y-104039098D01*
X148005451Y-104039098D02*
X148124498Y-103979575D01*
X146993546Y-104039098D02*
X146993546Y-103205765D01*
X146993546Y-102789098D02*
X147053070Y-102848622D01*
X147053070Y-102848622D02*
X146993546Y-102908146D01*
X146993546Y-102908146D02*
X146934023Y-102848622D01*
X146934023Y-102848622D02*
X146993546Y-102789098D01*
X146993546Y-102789098D02*
X146993546Y-102908146D01*
X146398308Y-103205765D02*
X146398308Y-104039098D01*
X146398308Y-103324813D02*
X146338785Y-103265289D01*
X146338785Y-103265289D02*
X146219737Y-103205765D01*
X146219737Y-103205765D02*
X146041166Y-103205765D01*
X146041166Y-103205765D02*
X145922118Y-103265289D01*
X145922118Y-103265289D02*
X145862594Y-103384336D01*
X145862594Y-103384336D02*
X145862594Y-104039098D01*
X144493547Y-103205765D02*
X144017356Y-103205765D01*
X144314975Y-102789098D02*
X144314975Y-103860527D01*
X144314975Y-103860527D02*
X144255452Y-103979575D01*
X144255452Y-103979575D02*
X144136404Y-104039098D01*
X144136404Y-104039098D02*
X144017356Y-104039098D01*
X143064975Y-104039098D02*
X143064975Y-103384336D01*
X143064975Y-103384336D02*
X143124499Y-103265289D01*
X143124499Y-103265289D02*
X143243547Y-103205765D01*
X143243547Y-103205765D02*
X143481642Y-103205765D01*
X143481642Y-103205765D02*
X143600689Y-103265289D01*
X143064975Y-103979575D02*
X143184023Y-104039098D01*
X143184023Y-104039098D02*
X143481642Y-104039098D01*
X143481642Y-104039098D02*
X143600689Y-103979575D01*
X143600689Y-103979575D02*
X143660213Y-103860527D01*
X143660213Y-103860527D02*
X143660213Y-103741479D01*
X143660213Y-103741479D02*
X143600689Y-103622432D01*
X143600689Y-103622432D02*
X143481642Y-103562908D01*
X143481642Y-103562908D02*
X143184023Y-103562908D01*
X143184023Y-103562908D02*
X143064975Y-103503384D01*
X142469737Y-104039098D02*
X142469737Y-102789098D01*
X142469737Y-103265289D02*
X142350690Y-103205765D01*
X142350690Y-103205765D02*
X142112595Y-103205765D01*
X142112595Y-103205765D02*
X141993547Y-103265289D01*
X141993547Y-103265289D02*
X141934023Y-103324813D01*
X141934023Y-103324813D02*
X141874499Y-103443860D01*
X141874499Y-103443860D02*
X141874499Y-103801003D01*
X141874499Y-103801003D02*
X141934023Y-103920051D01*
X141934023Y-103920051D02*
X141993547Y-103979575D01*
X141993547Y-103979575D02*
X142112595Y-104039098D01*
X142112595Y-104039098D02*
X142350690Y-104039098D01*
X142350690Y-104039098D02*
X142469737Y-103979575D01*
X141160214Y-104039098D02*
X141279262Y-103979575D01*
X141279262Y-103979575D02*
X141338785Y-103860527D01*
X141338785Y-103860527D02*
X141338785Y-102789098D01*
X140207833Y-103979575D02*
X140326881Y-104039098D01*
X140326881Y-104039098D02*
X140564976Y-104039098D01*
X140564976Y-104039098D02*
X140684023Y-103979575D01*
X140684023Y-103979575D02*
X140743547Y-103860527D01*
X140743547Y-103860527D02*
X140743547Y-103384336D01*
X140743547Y-103384336D02*
X140684023Y-103265289D01*
X140684023Y-103265289D02*
X140564976Y-103205765D01*
X140564976Y-103205765D02*
X140326881Y-103205765D01*
X140326881Y-103205765D02*
X140207833Y-103265289D01*
X140207833Y-103265289D02*
X140148309Y-103384336D01*
X140148309Y-103384336D02*
X140148309Y-103503384D01*
X140148309Y-103503384D02*
X140743547Y-103622432D01*
X146702117Y-108301808D02*
X146702117Y-107051808D01*
X146702117Y-107051808D02*
X146225927Y-107051808D01*
X146225927Y-107051808D02*
X146106879Y-107111332D01*
X146106879Y-107111332D02*
X146047356Y-107170856D01*
X146047356Y-107170856D02*
X145987832Y-107289904D01*
X145987832Y-107289904D02*
X145987832Y-107468475D01*
X145987832Y-107468475D02*
X146047356Y-107587523D01*
X146047356Y-107587523D02*
X146106879Y-107647046D01*
X146106879Y-107647046D02*
X146225927Y-107706570D01*
X146225927Y-107706570D02*
X146702117Y-107706570D01*
X145452117Y-108301808D02*
X145452117Y-107051808D01*
X144856879Y-108301808D02*
X144856879Y-107051808D01*
X144856879Y-107051808D02*
X144142594Y-108301808D01*
X144142594Y-108301808D02*
X144142594Y-107051808D01*
X142654498Y-107170856D02*
X142594974Y-107111332D01*
X142594974Y-107111332D02*
X142475927Y-107051808D01*
X142475927Y-107051808D02*
X142178308Y-107051808D01*
X142178308Y-107051808D02*
X142059260Y-107111332D01*
X142059260Y-107111332D02*
X141999736Y-107170856D01*
X141999736Y-107170856D02*
X141940213Y-107289904D01*
X141940213Y-107289904D02*
X141940213Y-107408951D01*
X141940213Y-107408951D02*
X141999736Y-107587523D01*
X141999736Y-107587523D02*
X142714022Y-108301808D01*
X142714022Y-108301808D02*
X141940213Y-108301808D01*
X141225927Y-107587523D02*
X141344975Y-107527999D01*
X141344975Y-107527999D02*
X141404498Y-107468475D01*
X141404498Y-107468475D02*
X141464022Y-107349427D01*
X141464022Y-107349427D02*
X141464022Y-107289904D01*
X141464022Y-107289904D02*
X141404498Y-107170856D01*
X141404498Y-107170856D02*
X141344975Y-107111332D01*
X141344975Y-107111332D02*
X141225927Y-107051808D01*
X141225927Y-107051808D02*
X140987832Y-107051808D01*
X140987832Y-107051808D02*
X140868784Y-107111332D01*
X140868784Y-107111332D02*
X140809260Y-107170856D01*
X140809260Y-107170856D02*
X140749737Y-107289904D01*
X140749737Y-107289904D02*
X140749737Y-107349427D01*
X140749737Y-107349427D02*
X140809260Y-107468475D01*
X140809260Y-107468475D02*
X140868784Y-107527999D01*
X140868784Y-107527999D02*
X140987832Y-107587523D01*
X140987832Y-107587523D02*
X141225927Y-107587523D01*
X141225927Y-107587523D02*
X141344975Y-107647046D01*
X141344975Y-107647046D02*
X141404498Y-107706570D01*
X141404498Y-107706570D02*
X141464022Y-107825618D01*
X141464022Y-107825618D02*
X141464022Y-108063713D01*
X141464022Y-108063713D02*
X141404498Y-108182761D01*
X141404498Y-108182761D02*
X141344975Y-108242285D01*
X141344975Y-108242285D02*
X141225927Y-108301808D01*
X141225927Y-108301808D02*
X140987832Y-108301808D01*
X140987832Y-108301808D02*
X140868784Y-108242285D01*
X140868784Y-108242285D02*
X140809260Y-108182761D01*
X140809260Y-108182761D02*
X140749737Y-108063713D01*
X140749737Y-108063713D02*
X140749737Y-107825618D01*
X140749737Y-107825618D02*
X140809260Y-107706570D01*
X140809260Y-107706570D02*
X140868784Y-107647046D01*
X140868784Y-107647046D02*
X140987832Y-107587523D01*
X146702117Y-110314238D02*
X146702117Y-109064238D01*
X146702117Y-109064238D02*
X146225927Y-109064238D01*
X146225927Y-109064238D02*
X146106879Y-109123762D01*
X146106879Y-109123762D02*
X146047356Y-109183286D01*
X146047356Y-109183286D02*
X145987832Y-109302334D01*
X145987832Y-109302334D02*
X145987832Y-109480905D01*
X145987832Y-109480905D02*
X146047356Y-109599953D01*
X146047356Y-109599953D02*
X146106879Y-109659476D01*
X146106879Y-109659476D02*
X146225927Y-109719000D01*
X146225927Y-109719000D02*
X146702117Y-109719000D01*
X145452117Y-110314238D02*
X145452117Y-109064238D01*
X144856879Y-110314238D02*
X144856879Y-109064238D01*
X144856879Y-109064238D02*
X144142594Y-110314238D01*
X144142594Y-110314238D02*
X144142594Y-109064238D01*
X142654498Y-109183286D02*
X142594974Y-109123762D01*
X142594974Y-109123762D02*
X142475927Y-109064238D01*
X142475927Y-109064238D02*
X142178308Y-109064238D01*
X142178308Y-109064238D02*
X142059260Y-109123762D01*
X142059260Y-109123762D02*
X141999736Y-109183286D01*
X141999736Y-109183286D02*
X141940213Y-109302334D01*
X141940213Y-109302334D02*
X141940213Y-109421381D01*
X141940213Y-109421381D02*
X141999736Y-109599953D01*
X141999736Y-109599953D02*
X142714022Y-110314238D01*
X142714022Y-110314238D02*
X141940213Y-110314238D01*
X141523546Y-109064238D02*
X140690213Y-109064238D01*
X140690213Y-109064238D02*
X141225927Y-110314238D01*
X146702117Y-112326668D02*
X146702117Y-111076668D01*
X146702117Y-111076668D02*
X146225927Y-111076668D01*
X146225927Y-111076668D02*
X146106879Y-111136192D01*
X146106879Y-111136192D02*
X146047356Y-111195716D01*
X146047356Y-111195716D02*
X145987832Y-111314764D01*
X145987832Y-111314764D02*
X145987832Y-111493335D01*
X145987832Y-111493335D02*
X146047356Y-111612383D01*
X146047356Y-111612383D02*
X146106879Y-111671906D01*
X146106879Y-111671906D02*
X146225927Y-111731430D01*
X146225927Y-111731430D02*
X146702117Y-111731430D01*
X145452117Y-112326668D02*
X145452117Y-111076668D01*
X144856879Y-112326668D02*
X144856879Y-111076668D01*
X144856879Y-111076668D02*
X144142594Y-112326668D01*
X144142594Y-112326668D02*
X144142594Y-111076668D01*
X142714022Y-111076668D02*
X141880689Y-111076668D01*
X141880689Y-111076668D02*
X142416403Y-112326668D01*
X146761641Y-114279575D02*
X146583070Y-114339098D01*
X146583070Y-114339098D02*
X146285451Y-114339098D01*
X146285451Y-114339098D02*
X146166403Y-114279575D01*
X146166403Y-114279575D02*
X146106879Y-114220051D01*
X146106879Y-114220051D02*
X146047356Y-114101003D01*
X146047356Y-114101003D02*
X146047356Y-113981955D01*
X146047356Y-113981955D02*
X146106879Y-113862908D01*
X146106879Y-113862908D02*
X146166403Y-113803384D01*
X146166403Y-113803384D02*
X146285451Y-113743860D01*
X146285451Y-113743860D02*
X146523546Y-113684336D01*
X146523546Y-113684336D02*
X146642594Y-113624813D01*
X146642594Y-113624813D02*
X146702117Y-113565289D01*
X146702117Y-113565289D02*
X146761641Y-113446241D01*
X146761641Y-113446241D02*
X146761641Y-113327194D01*
X146761641Y-113327194D02*
X146702117Y-113208146D01*
X146702117Y-113208146D02*
X146642594Y-113148622D01*
X146642594Y-113148622D02*
X146523546Y-113089098D01*
X146523546Y-113089098D02*
X146225927Y-113089098D01*
X146225927Y-113089098D02*
X146047356Y-113148622D01*
X145511641Y-114339098D02*
X145511641Y-113089098D01*
X145511641Y-113684336D02*
X144797356Y-113684336D01*
X144797356Y-114339098D02*
X144797356Y-113089098D01*
X144202117Y-114339098D02*
X144202117Y-113089098D01*
X143606879Y-113684336D02*
X143190213Y-113684336D01*
X143011641Y-114339098D02*
X143606879Y-114339098D01*
X143606879Y-114339098D02*
X143606879Y-113089098D01*
X143606879Y-113089098D02*
X143011641Y-113089098D01*
X141880689Y-114339098D02*
X142475927Y-114339098D01*
X142475927Y-114339098D02*
X142475927Y-113089098D01*
X141464022Y-114339098D02*
X141464022Y-113089098D01*
X141464022Y-113089098D02*
X141166403Y-113089098D01*
X141166403Y-113089098D02*
X140987832Y-113148622D01*
X140987832Y-113148622D02*
X140868784Y-113267670D01*
X140868784Y-113267670D02*
X140809261Y-113386717D01*
X140809261Y-113386717D02*
X140749737Y-113624813D01*
X140749737Y-113624813D02*
X140749737Y-113803384D01*
X140749737Y-113803384D02*
X140809261Y-114041479D01*
X140809261Y-114041479D02*
X140868784Y-114160527D01*
X140868784Y-114160527D02*
X140987832Y-114279575D01*
X140987832Y-114279575D02*
X141166403Y-114339098D01*
X141166403Y-114339098D02*
X141464022Y-114339098D01*
X151202117Y-108301808D02*
X151202117Y-107051808D01*
X151202117Y-107647046D02*
X150487832Y-107647046D01*
X150487832Y-108301808D02*
X150487832Y-107051808D01*
X149297355Y-107051808D02*
X149892593Y-107051808D01*
X149892593Y-107051808D02*
X149952117Y-107647046D01*
X149952117Y-107647046D02*
X149892593Y-107587523D01*
X149892593Y-107587523D02*
X149773546Y-107527999D01*
X149773546Y-107527999D02*
X149475927Y-107527999D01*
X149475927Y-107527999D02*
X149356879Y-107587523D01*
X149356879Y-107587523D02*
X149297355Y-107647046D01*
X149297355Y-107647046D02*
X149237832Y-107766094D01*
X149237832Y-107766094D02*
X149237832Y-108063713D01*
X149237832Y-108063713D02*
X149297355Y-108182761D01*
X149297355Y-108182761D02*
X149356879Y-108242285D01*
X149356879Y-108242285D02*
X149475927Y-108301808D01*
X149475927Y-108301808D02*
X149773546Y-108301808D01*
X149773546Y-108301808D02*
X149892593Y-108242285D01*
X149892593Y-108242285D02*
X149952117Y-108182761D01*
X151202117Y-110314238D02*
X151202117Y-109064238D01*
X151202117Y-109659476D02*
X150487832Y-109659476D01*
X150487832Y-110314238D02*
X150487832Y-109064238D01*
X149356879Y-109064238D02*
X149594974Y-109064238D01*
X149594974Y-109064238D02*
X149714022Y-109123762D01*
X149714022Y-109123762D02*
X149773546Y-109183286D01*
X149773546Y-109183286D02*
X149892593Y-109361857D01*
X149892593Y-109361857D02*
X149952117Y-109599953D01*
X149952117Y-109599953D02*
X149952117Y-110076143D01*
X149952117Y-110076143D02*
X149892593Y-110195191D01*
X149892593Y-110195191D02*
X149833070Y-110254715D01*
X149833070Y-110254715D02*
X149714022Y-110314238D01*
X149714022Y-110314238D02*
X149475927Y-110314238D01*
X149475927Y-110314238D02*
X149356879Y-110254715D01*
X149356879Y-110254715D02*
X149297355Y-110195191D01*
X149297355Y-110195191D02*
X149237832Y-110076143D01*
X149237832Y-110076143D02*
X149237832Y-109778524D01*
X149237832Y-109778524D02*
X149297355Y-109659476D01*
X149297355Y-109659476D02*
X149356879Y-109599953D01*
X149356879Y-109599953D02*
X149475927Y-109540429D01*
X149475927Y-109540429D02*
X149714022Y-109540429D01*
X149714022Y-109540429D02*
X149833070Y-109599953D01*
X149833070Y-109599953D02*
X149892593Y-109659476D01*
X149892593Y-109659476D02*
X149952117Y-109778524D01*
X151202117Y-112326668D02*
X151202117Y-111076668D01*
X151202117Y-111671906D02*
X150487832Y-111671906D01*
X150487832Y-112326668D02*
X150487832Y-111076668D01*
X150011641Y-111076668D02*
X149178308Y-111076668D01*
X149178308Y-111076668D02*
X149714022Y-112326668D01*
X151202117Y-114339098D02*
X151202117Y-113089098D01*
X151202117Y-113684336D02*
X150487832Y-113684336D01*
X150487832Y-114339098D02*
X150487832Y-113089098D01*
X149714022Y-113624813D02*
X149833070Y-113565289D01*
X149833070Y-113565289D02*
X149892593Y-113505765D01*
X149892593Y-113505765D02*
X149952117Y-113386717D01*
X149952117Y-113386717D02*
X149952117Y-113327194D01*
X149952117Y-113327194D02*
X149892593Y-113208146D01*
X149892593Y-113208146D02*
X149833070Y-113148622D01*
X149833070Y-113148622D02*
X149714022Y-113089098D01*
X149714022Y-113089098D02*
X149475927Y-113089098D01*
X149475927Y-113089098D02*
X149356879Y-113148622D01*
X149356879Y-113148622D02*
X149297355Y-113208146D01*
X149297355Y-113208146D02*
X149237832Y-113327194D01*
X149237832Y-113327194D02*
X149237832Y-113386717D01*
X149237832Y-113386717D02*
X149297355Y-113505765D01*
X149297355Y-113505765D02*
X149356879Y-113565289D01*
X149356879Y-113565289D02*
X149475927Y-113624813D01*
X149475927Y-113624813D02*
X149714022Y-113624813D01*
X149714022Y-113624813D02*
X149833070Y-113684336D01*
X149833070Y-113684336D02*
X149892593Y-113743860D01*
X149892593Y-113743860D02*
X149952117Y-113862908D01*
X149952117Y-113862908D02*
X149952117Y-114101003D01*
X149952117Y-114101003D02*
X149892593Y-114220051D01*
X149892593Y-114220051D02*
X149833070Y-114279575D01*
X149833070Y-114279575D02*
X149714022Y-114339098D01*
X149714022Y-114339098D02*
X149475927Y-114339098D01*
X149475927Y-114339098D02*
X149356879Y-114279575D01*
X149356879Y-114279575D02*
X149297355Y-114220051D01*
X149297355Y-114220051D02*
X149237832Y-114101003D01*
X149237832Y-114101003D02*
X149237832Y-113862908D01*
X149237832Y-113862908D02*
X149297355Y-113743860D01*
X149297355Y-113743860D02*
X149356879Y-113684336D01*
X149356879Y-113684336D02*
X149475927Y-113624813D01*
X166702117Y-108301808D02*
X166702117Y-107051808D01*
X166702117Y-107647046D02*
X165987832Y-107647046D01*
X165987832Y-108301808D02*
X165987832Y-107051808D01*
X164737832Y-108301808D02*
X165452117Y-108301808D01*
X165094974Y-108301808D02*
X165094974Y-107051808D01*
X165094974Y-107051808D02*
X165214022Y-107230380D01*
X165214022Y-107230380D02*
X165333070Y-107349427D01*
X165333070Y-107349427D02*
X165452117Y-107408951D01*
X166702117Y-110314238D02*
X166702117Y-109064238D01*
X166702117Y-109659476D02*
X165987832Y-109659476D01*
X165987832Y-110314238D02*
X165987832Y-109064238D01*
X165452117Y-109183286D02*
X165392593Y-109123762D01*
X165392593Y-109123762D02*
X165273546Y-109064238D01*
X165273546Y-109064238D02*
X164975927Y-109064238D01*
X164975927Y-109064238D02*
X164856879Y-109123762D01*
X164856879Y-109123762D02*
X164797355Y-109183286D01*
X164797355Y-109183286D02*
X164737832Y-109302334D01*
X164737832Y-109302334D02*
X164737832Y-109421381D01*
X164737832Y-109421381D02*
X164797355Y-109599953D01*
X164797355Y-109599953D02*
X165511641Y-110314238D01*
X165511641Y-110314238D02*
X164737832Y-110314238D01*
X166702117Y-112326668D02*
X166702117Y-111076668D01*
X166702117Y-111671906D02*
X165987832Y-111671906D01*
X165987832Y-112326668D02*
X165987832Y-111076668D01*
X165511641Y-111076668D02*
X164737832Y-111076668D01*
X164737832Y-111076668D02*
X165154498Y-111552859D01*
X165154498Y-111552859D02*
X164975927Y-111552859D01*
X164975927Y-111552859D02*
X164856879Y-111612383D01*
X164856879Y-111612383D02*
X164797355Y-111671906D01*
X164797355Y-111671906D02*
X164737832Y-111790954D01*
X164737832Y-111790954D02*
X164737832Y-112088573D01*
X164737832Y-112088573D02*
X164797355Y-112207621D01*
X164797355Y-112207621D02*
X164856879Y-112267145D01*
X164856879Y-112267145D02*
X164975927Y-112326668D01*
X164975927Y-112326668D02*
X165333070Y-112326668D01*
X165333070Y-112326668D02*
X165452117Y-112267145D01*
X165452117Y-112267145D02*
X165511641Y-112207621D01*
X166702117Y-114339098D02*
X166702117Y-113089098D01*
X166702117Y-113684336D02*
X165987832Y-113684336D01*
X165987832Y-114339098D02*
X165987832Y-113089098D01*
X164856879Y-113505765D02*
X164856879Y-114339098D01*
X165154498Y-113029575D02*
X165452117Y-113922432D01*
X165452117Y-113922432D02*
X164678308Y-113922432D01*
D12*
%TO.C,G\u002A\u002A\u002A*%
G36*
X163515189Y-130532075D02*
G01*
X163515189Y-131660298D01*
X163515189Y-131850000D01*
X163515189Y-132838443D01*
X163515189Y-135354481D01*
X154110001Y-135354481D01*
X144704812Y-135354481D01*
X144704812Y-131850000D01*
X144704812Y-130262500D01*
X146026797Y-130262500D01*
X146029730Y-131580424D01*
X146032662Y-132898349D01*
X146181978Y-132898349D01*
X146238063Y-132895573D01*
X146310644Y-132853997D01*
X146320432Y-132733608D01*
X146319625Y-132720424D01*
X146314519Y-132539177D01*
X146315917Y-132337238D01*
X146316795Y-132308456D01*
X146330637Y-132174948D01*
X146374711Y-132126849D01*
X146472029Y-132134237D01*
X146545721Y-132143731D01*
X146608219Y-132111375D01*
X146621793Y-131991457D01*
X146619135Y-131926799D01*
X146580867Y-131840685D01*
X146472029Y-131820047D01*
X146322265Y-131820047D01*
X146322265Y-131580424D01*
X146681699Y-131580424D01*
X146685275Y-131658576D01*
X146724431Y-131740799D01*
X146831463Y-131760141D01*
X146896590Y-131755849D01*
X146965108Y-131708863D01*
X146981227Y-131580424D01*
X146977651Y-131502272D01*
X146938495Y-131420050D01*
X146831463Y-131400707D01*
X146766337Y-131404999D01*
X146697818Y-131451985D01*
X146681699Y-131580424D01*
X146322265Y-131580424D01*
X146322265Y-131292921D01*
X147005721Y-131292921D01*
X147058008Y-131380037D01*
X147196240Y-131385024D01*
X147337304Y-131358058D01*
X147342026Y-131580424D01*
X147350753Y-131991457D01*
X147353959Y-132142440D01*
X147354656Y-132174658D01*
X147363977Y-132492997D01*
X147377049Y-132711112D01*
X147396334Y-132847052D01*
X147424295Y-132918868D01*
X147463394Y-132944609D01*
X147508833Y-132948499D01*
X147594446Y-132924124D01*
X147599296Y-132908931D01*
X147610397Y-132795416D01*
X147620373Y-132587371D01*
X147628651Y-132302607D01*
X147630804Y-132179481D01*
X150156227Y-132179481D01*
X150158430Y-132338681D01*
X150172963Y-132468188D01*
X150209122Y-132525800D01*
X150276039Y-132538915D01*
X150329105Y-132532307D01*
X150372274Y-132488707D01*
X150391478Y-132380232D01*
X150395850Y-132179481D01*
X150393647Y-132020281D01*
X150379114Y-131890773D01*
X150342956Y-131833162D01*
X150276039Y-131820047D01*
X150222972Y-131826655D01*
X150179803Y-131870254D01*
X150160599Y-131978730D01*
X150156227Y-132179481D01*
X147630804Y-132179481D01*
X147634661Y-131958937D01*
X147637829Y-131574175D01*
X147639905Y-131041273D01*
X150156227Y-131041273D01*
X150158430Y-131200473D01*
X150172963Y-131329981D01*
X150209122Y-131387592D01*
X150276039Y-131400707D01*
X150345895Y-131397960D01*
X150400759Y-131385731D01*
X150405378Y-131345571D01*
X150416694Y-131214356D01*
X150431280Y-131026297D01*
X150432025Y-131016249D01*
X150442897Y-130826979D01*
X150432524Y-130727250D01*
X150390535Y-130688418D01*
X150306559Y-130681839D01*
X150300828Y-130681848D01*
X150219912Y-130690508D01*
X150176686Y-130734540D01*
X150159380Y-130842082D01*
X150156227Y-131041273D01*
X147639905Y-131041273D01*
X147641539Y-130621934D01*
X150447797Y-130621934D01*
X150959466Y-130621934D01*
X151471135Y-130621934D01*
X151464543Y-130826979D01*
X151457667Y-131040859D01*
X151444199Y-131459785D01*
X150949977Y-131460199D01*
X150740123Y-131461404D01*
X150579634Y-131469378D01*
X150494778Y-131491054D01*
X150461502Y-131533402D01*
X150455756Y-131603390D01*
X150460564Y-131662877D01*
X150498842Y-131733137D01*
X150593253Y-131773763D01*
X150764915Y-131791702D01*
X151034947Y-131793898D01*
X151404468Y-131790094D01*
X151424334Y-131999764D01*
X151431995Y-132179481D01*
X151432827Y-132198991D01*
X151425427Y-132404127D01*
X151406655Y-132598820D01*
X150931205Y-132598820D01*
X150455756Y-132598820D01*
X150455756Y-132778537D01*
X150455756Y-132958254D01*
X151084765Y-132958254D01*
X151713774Y-132958254D01*
X151713774Y-132823467D01*
X158613923Y-132823467D01*
X158623687Y-132888826D01*
X158652929Y-132946406D01*
X158724347Y-132978537D01*
X158863800Y-132994954D01*
X159097147Y-133005393D01*
X159561416Y-133022578D01*
X159561416Y-132840652D01*
X159557816Y-132763824D01*
X160664604Y-132763824D01*
X160679547Y-132887953D01*
X160685423Y-132908497D01*
X160718960Y-132967667D01*
X160790354Y-133000693D01*
X160926901Y-133015037D01*
X161155903Y-133018160D01*
X161598208Y-133018160D01*
X161598208Y-132838443D01*
X161598208Y-132658726D01*
X161152451Y-132658726D01*
X161118608Y-132658868D01*
X160904893Y-132666755D01*
X160746676Y-132684324D01*
X160676096Y-132708236D01*
X160664604Y-132763824D01*
X159557816Y-132763824D01*
X159557589Y-132758984D01*
X159518220Y-132677747D01*
X159411652Y-132658726D01*
X159261888Y-132658726D01*
X159261888Y-131883932D01*
X159261888Y-131109137D01*
X159426628Y-131090182D01*
X159454098Y-131086415D01*
X159567419Y-131034793D01*
X159610324Y-130906485D01*
X159614526Y-130813432D01*
X159572765Y-130754060D01*
X159445584Y-130741745D01*
X160335067Y-130741745D01*
X160336399Y-130813432D01*
X160352604Y-131685259D01*
X160358007Y-131961747D01*
X160365587Y-132238534D01*
X160376179Y-132426643D01*
X160392596Y-132543854D01*
X160417651Y-132607949D01*
X160454158Y-132636709D01*
X160504930Y-132647916D01*
X160560617Y-132652116D01*
X160605537Y-132630627D01*
X160630829Y-132558192D01*
X160643460Y-132411857D01*
X160650398Y-132168671D01*
X160651837Y-132100376D01*
X160652628Y-132059669D01*
X161358586Y-132059669D01*
X161362162Y-132137821D01*
X161401318Y-132220044D01*
X161508350Y-132239386D01*
X161596572Y-132249218D01*
X161646925Y-132307265D01*
X161658114Y-132449056D01*
X161660768Y-132527307D01*
X161691220Y-132630703D01*
X161767941Y-132658726D01*
X161829613Y-132653097D01*
X161917705Y-132618789D01*
X161925202Y-132594952D01*
X161938039Y-132469618D01*
X161948327Y-132257609D01*
X161955163Y-131980608D01*
X161957642Y-131660298D01*
X161957642Y-130741745D01*
X161807878Y-130741745D01*
X161782545Y-130741889D01*
X161722001Y-130750712D01*
X161685192Y-130789577D01*
X161666211Y-130880927D01*
X161659154Y-131047203D01*
X161658232Y-131280896D01*
X161658114Y-131310849D01*
X161658076Y-131407113D01*
X161655754Y-131637181D01*
X161651144Y-131700235D01*
X161645527Y-131777057D01*
X161621487Y-131849183D01*
X161577730Y-131876000D01*
X161508350Y-131879952D01*
X161443223Y-131884244D01*
X161374705Y-131931231D01*
X161358586Y-132059669D01*
X160652628Y-132059669D01*
X160656461Y-131862530D01*
X160659131Y-131700235D01*
X160999152Y-131700235D01*
X161002728Y-131778387D01*
X161041884Y-131860610D01*
X161148916Y-131879952D01*
X161214042Y-131875661D01*
X161282561Y-131828674D01*
X161298680Y-131700235D01*
X161295104Y-131622084D01*
X161255948Y-131539861D01*
X161148916Y-131520519D01*
X161083789Y-131524810D01*
X161015271Y-131571797D01*
X160999152Y-131700235D01*
X160659131Y-131700235D01*
X160659593Y-131672172D01*
X160660618Y-131565448D01*
X160699278Y-131484880D01*
X160829655Y-131460613D01*
X160914656Y-131455428D01*
X160983962Y-131408471D01*
X160999152Y-131280896D01*
X160995575Y-131202744D01*
X160956420Y-131120521D01*
X160849388Y-131101179D01*
X160784261Y-131096887D01*
X160715742Y-131049901D01*
X160699623Y-130921462D01*
X160693697Y-130824065D01*
X160645836Y-130756066D01*
X160517345Y-130741745D01*
X160335067Y-130741745D01*
X159445584Y-130741745D01*
X159322761Y-130730630D01*
X159271789Y-130672877D01*
X159261888Y-130532075D01*
X159254460Y-130405654D01*
X159211763Y-130337302D01*
X159107534Y-130322405D01*
X159020387Y-130330132D01*
X158968380Y-130382771D01*
X158963839Y-130517099D01*
X158965876Y-130576921D01*
X158968483Y-130760372D01*
X158969844Y-131023285D01*
X158969859Y-131340100D01*
X158968719Y-131615254D01*
X158968429Y-131685259D01*
X158962359Y-132658726D01*
X158778663Y-132658726D01*
X158675574Y-132664560D01*
X158614385Y-132708138D01*
X158613923Y-132823467D01*
X151713774Y-132823467D01*
X151713774Y-131615254D01*
X151713774Y-130321654D01*
X160699623Y-130321654D01*
X160699623Y-130501747D01*
X160699623Y-130681839D01*
X161178869Y-130681839D01*
X161380841Y-130680931D01*
X161538816Y-130673141D01*
X161621389Y-130650827D01*
X161653007Y-130606352D01*
X161658114Y-130532075D01*
X161639658Y-130432420D01*
X161583232Y-130376359D01*
X161493962Y-130370272D01*
X161320716Y-130359298D01*
X161103987Y-130346031D01*
X160699623Y-130321654D01*
X151713774Y-130321654D01*
X151713774Y-130272253D01*
X151099741Y-130282353D01*
X150485708Y-130292452D01*
X150466753Y-130457193D01*
X150447797Y-130621934D01*
X147641539Y-130621934D01*
X147642939Y-130262500D01*
X147491800Y-130262500D01*
X147466110Y-130262736D01*
X147395462Y-130275093D01*
X147358010Y-130326019D01*
X147343247Y-130442591D01*
X147340661Y-130651886D01*
X147340604Y-130701190D01*
X147336147Y-130890489D01*
X147317477Y-130992263D01*
X147274690Y-131033522D01*
X147197884Y-131041273D01*
X147098752Y-131062871D01*
X147021057Y-131171481D01*
X147005721Y-131292921D01*
X146322265Y-131292921D01*
X146322265Y-131041273D01*
X146322265Y-130262500D01*
X146174531Y-130262500D01*
X146026797Y-130262500D01*
X144704812Y-130262500D01*
X144704812Y-128345519D01*
X154110001Y-128345519D01*
X163515189Y-128345519D01*
X163515189Y-130262500D01*
X163515189Y-130532075D01*
G37*
%TD*%
M02*
